<?xml version="1.0" standalone="no"?>
<!DOCTYPE svg PUBLIC "-//W3C//DTD SVG 20010904//EN"
 "http://www.w3.org/TR/2001/REC-SVG-20010904/DTD/svg10.dtd">
<svg version="1.0" xmlns="http://www.w3.org/2000/svg"
 width="768.000000pt" height="1280.000000pt" viewBox="0 0 768.000000 1280.000000"
 preserveAspectRatio="xMidYMid meet">
<metadata>
Created by potrace 1.11, written by Peter Selinger 2001-2013
</metadata>
<g transform="translate(0.000000,1280.000000) scale(0.100000,-0.100000)"
fill="#000000" stroke="none">
<path d="M0 6400 l0 -6400 3840 0 3840 0 0 6400 0 6400 -3840 0 -3840 0 0
-6400z m227 2110 c4 -16 14 -20 53 -20 39 0 49 4 53 20 4 17 14 20 59 20 56 0
78 -12 78 -42 0 -17 12 -18 154 -18 93 0 157 -4 161 -10 3 -5 37 -10 76 -10
58 0 71 -3 81 -20 11 -17 24 -20 80 -20 57 0 70 -3 80 -20 11 -17 24 -20 78
-20 68 0 90 -10 90 -42 0 -14 8 -18 34 -18 19 0 38 -4 41 -10 3 -5 19 -10 34
-10 15 0 36 -9 46 -20 14 -16 31 -20 81 -20 53 0 66 -3 76 -20 11 -17 24 -20
78 -20 67 0 90 -10 90 -40 0 -23 42 -40 95 -40 34 0 48 -5 57 -20 11 -17 24
-20 78 -20 73 0 90 -10 90 -52 0 -24 4 -28 29 -28 17 0 36 -8 43 -17 18 -24
74 -63 91 -63 7 0 18 5 25 12 9 9 19 5 45 -20 18 -18 40 -32 48 -32 25 0 39
-22 39 -62 0 -21 5 -38 10 -38 6 0 10 -7 10 -15 0 -8 -4 -15 -10 -15 -15 0
-12 -27 5 -44 14 -13 13 -16 -6 -30 -36 -25 -119 -129 -119 -149 0 -15 5 -18
23 -13 12 3 28 6 35 6 6 0 12 8 13 18 0 10 3 12 6 5 10 -25 33 -14 33 16 0 40
17 48 46 20 25 -24 25 -63 -2 -85 -8 -6 -14 -16 -14 -22 0 -6 -17 -14 -37 -18
-21 -4 -44 -11 -50 -17 -16 -12 -18 -137 -3 -137 6 0 -1 -22 -15 -50 -16 -31
-25 -66 -25 -95 0 -41 2 -45 25 -45 32 0 32 -15 1 -35 -21 -14 -25 -27 -31
-90 -4 -44 -13 -79 -21 -86 -22 -18 -17 -34 16 -46 27 -10 30 -15 30 -57 0
-26 5 -46 11 -46 5 0 32 -22 60 -49 l49 -48 0 -187 c0 -179 1 -189 29 -269 45
-128 87 -231 156 -377 84 -177 109 -268 110 -390 0 -139 -27 -221 -119 -352
-42 -60 -125 -217 -160 -301 -39 -97 -29 -204 30 -299 35 -57 35 -59 29 -140
-4 -46 -10 -225 -15 -398 -7 -295 -9 -320 -32 -391 -14 -41 -35 -89 -47 -105
-12 -17 -28 -57 -35 -90 -9 -46 -33 -93 -111 -214 -126 -198 -148 -248 -235
-523 -124 -396 -160 -476 -253 -562 -35 -33 -85 -77 -111 -98 -25 -21 -46 -44
-46 -50 0 -7 -4 -18 -9 -26 -7 -11 -15 -10 -46 9 l-37 23 29 28 c15 16 55 39
87 52 67 26 95 56 103 113 8 62 -20 81 -134 90 -119 9 -123 11 -95 67 12 24
22 52 22 61 0 36 -178 129 -272 142 -24 3 -82 1 -130 -4 -98 -12 -149 -3 -173
30 -13 20 -13 24 2 40 9 10 22 18 29 18 38 0 45 86 10 127 -24 27 -26 28 -168
33 -78 3 -149 9 -156 13 -7 5 -23 30 -37 56 -47 95 -63 106 -215 156 -177 58
-218 59 -316 8 -42 -21 -78 -34 -88 -30 -15 6 -16 223 -16 2800 0 1537 3 2797
7 2800 3 4 51 7 106 7 90 0 99 -2 104 -20z m3295 -1530 c7 -17 20 -30 29 -30
22 0 43 -26 35 -45 -6 -17 -36 -21 -36 -5 0 6 -6 10 -14 10 -17 0 -23 -19 -25
-77 -2 -48 21 -61 34 -20 7 20 8 20 12 -8 2 -16 9 -40 15 -52 6 -13 9 -54 6
-101 -4 -69 -9 -87 -37 -130 -35 -55 -89 -107 -140 -134 -17 -10 -35 -28 -40
-40 -9 -22 -9 -22 -16 -3 -34 92 -115 236 -186 330 -21 28 -49 75 -63 105 -24
52 -25 55 -7 62 11 3 22 11 26 17 11 18 25 12 25 -10 0 -32 32 -19 42 17 5 19
16 34 28 37 14 4 20 14 20 35 0 34 17 52 26 28 8 -21 24 -20 40 2 13 16 15 16
28 0 7 -10 19 -18 25 -18 7 0 12 8 11 18 -4 37 12 62 39 62 14 0 33 4 40 9 20
13 65 -20 83 -59z m768 -887 c0 -1 -7 -3 -15 -3 -21 0 -19 -43 3 -62 9 -8 32
-21 50 -29 31 -13 43 -29 22 -29 -5 0 -10 -7 -10 -15 0 -18 27 -20 33 -2 2 6
8 9 12 4 5 -4 3 -13 -3 -19 -15 -15 -16 -55 -2 -63 6 -3 10 -14 10 -24 0 -19
85 -101 105 -101 24 0 35 -26 35 -85 0 -58 18 -117 41 -130 5 -4 9 -15 9 -27
0 -22 54 -78 75 -78 7 0 18 -7 25 -15 11 -13 11 -20 0 -41 -11 -19 -11 -27 -2
-36 7 -7 12 -24 12 -38 0 -15 9 -35 20 -45 16 -14 20 -31 20 -82 0 -54 3 -63
18 -63 32 0 42 -22 42 -92 0 -59 2 -68 18 -68 32 0 42 -22 42 -90 0 -54 4 -70
20 -85 16 -14 20 -31 20 -77 0 -60 12 -93 43 -116 12 -9 17 -27 17 -63 0 -41
3 -49 18 -49 37 0 42 -19 42 -170 0 -134 2 -148 20 -165 16 -14 20 -31 20 -81
0 -35 5 -66 10 -69 6 -3 10 -39 10 -80 0 -41 5 -77 10 -80 6 -3 10 -39 10 -80
0 -41 5 -77 10 -80 6 -4 10 -68 10 -161 0 -144 1 -154 19 -154 38 0 42 -19 39
-241 l-3 -214 -27 -3 -28 -3 0 -154 c0 -165 -2 -171 -52 -167 -25 2 -28 -1
-28 -27 0 -20 6 -30 20 -34 19 -5 20 -14 20 -127 0 -113 -1 -122 -20 -127 -22
-6 -27 -32 -9 -50 5 -5 9 -32 7 -59 -3 -42 -6 -49 -28 -54 -23 -5 -25 -10 -28
-79 -2 -63 -6 -74 -22 -78 -18 -5 -20 -14 -20 -77 0 -40 -4 -76 -10 -82 -5 -5
-10 -43 -12 -84 -3 -74 -4 -75 -30 -78 -20 -2 -28 -9 -28 -22 0 -10 5 -22 10
-25 6 -3 10 -29 10 -57 0 -41 -3 -51 -20 -55 -17 -4 -20 -15 -22 -82 l-3 -76
-38 -3 -39 -3 4 -100 c1 -54 0 -99 -5 -99 -11 0 -97 -88 -97 -100 0 -5 -4 -10
-10 -10 -10 0 -13 24 -10 102 1 42 -1 48 -19 48 -15 0 -21 -6 -21 -21 0 -12
-8 -23 -20 -26 -11 -3 -20 -10 -20 -15 0 -5 -4 -6 -10 -3 -5 3 -10 15 -10 26
0 23 -25 25 -34 2 -10 -25 -29 0 -28 36 0 16 -6 35 -14 42 -8 6 -14 17 -14 24
0 9 -18 11 -68 7 -54 -3 -70 -1 -81 12 -7 9 -22 16 -32 16 -21 0 -39 28 -39
59 0 12 -4 21 -9 21 -6 0 -29 20 -53 45 -39 41 -48 45 -107 52 -72 9 -88 25
-40 42 45 16 70 14 123 -10 31 -13 62 -19 94 -17 l47 3 3 43 c5 65 -37 130
-166 262 l-113 115 5 45 c3 25 8 93 12 153 3 59 10 110 16 113 21 14 91 4 142
-19 57 -26 95 -68 122 -133 9 -21 23 -47 32 -56 24 -28 69 -22 103 11 27 28
29 34 29 109 0 107 -18 160 -85 248 -72 94 -143 159 -235 214 -39 24 -74 49
-77 56 -3 7 2 131 11 276 9 145 23 385 31 533 8 149 17 308 20 355 12 175 22
1333 16 1815 -5 338 -3 502 4 507 7 5 6 14 -2 28 -19 30 -17 98 3 102 13 2
124 -95 124 -109z m-629 -749 c3 -373 9 -726 13 -784 11 -184 26 -842 36
-1635 10 -752 23 -1306 36 -1433 l6 -63 -254 6 c-263 7 -427 24 -478 50 -16 8
-62 46 -101 84 -84 82 -84 80 -100 321 l-12 175 42 175 c63 260 78 347 92 540
14 201 26 245 120 430 54 106 59 123 68 215 6 55 22 135 36 179 29 89 64 258
101 491 18 114 28 229 34 400 13 329 11 319 59 418 50 104 81 219 81 296 0 31
-9 98 -20 149 -11 51 -24 143 -30 205 -5 62 -12 133 -14 159 l-5 47 72 60 c40
33 99 92 131 131 33 39 64 69 70 67 8 -3 13 -205 17 -683z m-1146 -2971 c10
-387 5 -477 -37 -586 -26 -71 -36 -86 -56 -90 -29 -6 -277 58 -309 79 -13 8
-23 25 -23 37 0 30 52 216 80 288 35 87 204 388 264 468 31 41 56 78 56 83 0
4 4 8 9 8 5 0 12 -129 16 -287z"/>
</g>
</svg>
